<svg viewBox="0 0 447.775 244.196" xmlns="http://www.w3.org/2000/svg" xmlns:xlink="http://www.w3.org/1999/xlink"><clipPath id="a"><path d="m0 213.134h425.197v-213.134h-425.197z"/></clipPath><g clip-path="url(#a)" transform="matrix(1.33333 0 0 -1.33333 -59.473 264.513)"><path d="m68.582 112.629c1.196.723 2.148 1.75 2.855 3.081.708 1.33 1.062 2.89 1.062 4.675s-.354 3.342-1.062 4.674c-.707 1.33-1.659 2.358-2.855 3.083-1.196.724-2.535 1.086-4.017 1.086-1.483 0-2.822-.362-4.017-1.086-1.196-.725-2.148-1.752-2.855-3.082-.708-1.332-1.062-2.89-1.062-4.675s.354-3.344 1.062-4.674c.707-1.331 1.659-2.358 2.855-3.082 1.195-.726 2.534-1.088 4.017-1.088 1.482 0 2.821.363 4.017 1.088m-14.275-8.364c-3.032 1.584-5.407 3.782-7.125 6.595-1.718 2.812-2.577 5.987-2.577 9.524 0 3.538.859 6.713 2.577 9.527 1.718 2.812 4.093 5.01 7.125 6.594 3.032 1.583 6.451 2.375 10.258 2.375s7.226-.792 10.258-2.375c3.032-1.584 5.407-3.782 7.125-6.594 1.718-2.814 2.577-5.99 2.577-9.526 0-3.537-.859-6.712-2.577-9.525s-4.093-5.011-7.125-6.594-6.451-2.375-10.258-2.375-7.226.792-10.258 2.375m57.403 9.55c0 1.852-1.314 2.779-3.94 2.779h-7.177v-5.558h7.176c2.627 0 3.941.925 3.941 2.779m-11.117 15.917v-5.255h5.558c2.594 0 3.892.876 3.892 2.628 0 1.751-1.298 2.627-3.892 2.627zm21.425-11.925c1.145-1.483 1.718-3.268 1.718-5.356 0-3.101-1.28-5.5-3.84-7.201-2.56-1.702-6.266-2.552-11.117-2.552h-19.909v35.372h18.9c4.714 0 8.277-.842 10.686-2.526 2.408-1.686 3.613-3.926 3.613-6.721 0-1.652-.413-3.133-1.238-4.447-.826-1.314-2.047-2.375-3.664-3.184 2.088-.775 3.706-1.903 4.851-3.385m25.822 9.98c-.808.724-2.02 1.086-3.638 1.086h-4.346v-8.287h4.346c1.617 0 2.83.362 3.638 1.087.81.724 1.213 1.743 1.213 3.057s-.404 2.332-1.213 3.057m-4.75-16.195h-3.234v-8.894h-11.925v35.372h17.03c3.266 0 6.113-.54 8.54-1.617 2.424-1.078 4.294-2.627 5.608-4.65 1.314-2.02 1.97-4.378 1.97-7.073 0-2.526-.573-4.733-1.718-6.62-1.146-1.886-2.796-3.386-4.952-4.497l7.43-10.915h-12.735z" fill="#fff"/><path d="m186.395 117.454-3.436 8.894-3.436-8.894zm3.285-8.59h-13.442l-2.375-6.165h-12.127l15.462 35.372h11.724l15.462-35.372h-12.329zm33.553 3.133c2.56 0 4.606.732 6.14 2.198 1.532 1.465 2.298 3.529 2.298 6.19 0 2.66-.766 4.725-2.298 6.19-1.534 1.466-3.58 2.198-6.14 2.198h-5.003v-16.776zm-16.928 26.074h17.433c3.941 0 7.42-.716 10.434-2.147 3.015-1.433 5.357-3.48 7.025-6.14 1.667-2.662 2.501-5.794 2.501-9.4 0-3.604-.834-6.737-2.5-9.398-1.669-2.661-4.01-4.708-7.026-6.14-3.014-1.431-6.493-2.147-10.434-2.147h-17.433zm64.301-25.442c1.195.723 2.147 1.75 2.855 3.081.708 1.33 1.06 2.89 1.06 4.675s-.353 3.342-1.06 4.674c-.708 1.33-1.66 2.358-2.855 3.083-1.196.724-2.535 1.086-4.017 1.086-1.483 0-2.822-.362-4.017-1.086-1.196-.725-2.148-1.752-2.856-3.082-.707-1.332-1.06-2.89-1.06-4.675s.353-3.344 1.06-4.674c.708-1.331 1.66-2.358 2.856-3.082 1.195-.725 2.534-1.087 4.017-1.087 1.482 0 2.82.362 4.017 1.087m-14.275-8.363c-3.032 1.583-5.407 3.78-7.124 6.594-1.72 2.813-2.578 5.988-2.578 9.525s.859 6.712 2.578 9.526c1.717 2.812 4.092 5.01 7.124 6.594 3.032 1.583 6.45 2.375 10.258 2.375 3.806 0 7.226-.792 10.258-2.375 3.03-1.584 5.406-3.782 7.125-6.594 1.718-2.814 2.577-5.99 2.577-9.526 0-3.537-.86-6.712-2.577-9.525-1.72-2.813-4.094-5.011-7.125-6.594-3.032-1.583-6.452-2.375-10.258-2.375-3.807 0-7.226.792-10.258 2.375m71.097 33.804-14.958-35.37h-11.724l-14.956 35.37h12.835l8.439-20.667 8.64 20.667zm1.162.001h11.926v-35.372h-11.926zm25.872-33.831c-3 1.566-5.35 3.756-7.05 6.569-1.701 2.813-2.551 6.005-2.551 9.576 0 3.57.85 6.763 2.552 9.576 1.7 2.812 4.05 5.002 7.049 6.569 2.998 1.566 6.367 2.35 10.106 2.35 3.436 0 6.5-.607 9.197-1.82 2.695-1.213 4.918-2.965 6.67-5.255l-7.53-6.721c-2.19 2.762-4.766 4.144-7.73 4.144-2.493 0-4.497-.801-6.014-2.4-1.515-1.601-2.273-3.748-2.273-6.443 0-2.696.758-4.843 2.273-6.443 1.517-1.6 3.52-2.4 6.014-2.4 2.964 0 5.54 1.38 7.73 4.143l7.53-6.72c-1.752-2.291-3.975-4.042-6.67-5.255-2.696-1.213-5.761-1.82-9.197-1.82-3.74 0-7.108.784-10.106 2.35" fill="#fff"/><path d="m365.89 149.084h10.865l-9.955-8.084h-7.58z" fill="#ed2024"/><path d="m53.468 77.118-1.689 4.078-1.689-4.078zm.776-1.872h-4.944l-.943-2.282h-2.527l4.747 10.65h2.434l4.763-10.65h-2.586zm11.336.16c.397.41.594.96.594 1.65s-.197 1.24-.593 1.652c-.396.41-.893.616-1.491.616-.61 0-1.111-.205-1.507-.616s-.593-.961-.593-1.652c0-.69.197-1.24.593-1.65.396-.411.898-.616 1.507-.616.598 0 1.095.205 1.49.616m2.922 8.848v-11.29h-2.267v.943c-.588-.71-1.44-1.065-2.556-1.065-.771 0-1.47.172-2.093.517a3.706 3.706 0 0 0 -1.468 1.477c-.355.638-.532 1.379-.532 2.22 0 .843.177 1.583.532 2.222.355.64.845 1.13 1.468 1.477.624.344 1.322.516 2.093.516 1.045 0 1.86-.33 2.45-.988v3.97zm11.838-3.104-3.454-8.187h-2.45l-3.439 8.187h2.45l2.267-5.569 2.343 5.569zm7.661-5.744c.391.41.586.96.586 1.65s-.195 1.24-.586 1.652c-.39.41-.89.616-1.499.616-.607 0-1.11-.205-1.505-.616-.397-.411-.595-.961-.595-1.652 0-.69.199-1.24.595-1.65.395-.411.897-.616 1.505-.616.61 0 1.109.205 1.5.616m-3.82-2.024a4.02 4.02 0 0 0 -1.606 1.499c-.384.639-.577 1.364-.577 2.175 0 .812.192 1.538.577 2.177a4.01 4.01 0 0 0 1.607 1.498c.683.36 1.457.54 2.32.54.861 0 1.632-.18 2.312-.54a4.021 4.021 0 0 0 1.598-1.498c.385-.64.578-1.365.578-2.177 0-.811-.193-1.536-.578-2.175a4.03 4.03 0 0 0 -1.598-1.5c-.68-.36-1.45-.54-2.313-.54-.862 0-1.636.18-2.32.54m13.428 2.793-1.14-1.126v-2.085h-2.375v11.29h2.374v-6.39l3.47 3.287h2.83l-3.409-3.47 3.713-4.717h-2.876zm12.097-1.453c.315.187.539.464.67.83v.836h-1.629c-.974 0-1.46-.319-1.46-.959 0-.304.12-.545.358-.723.237-.177.564-.266.98-.266.406 0 .767.094 1.081.282m2.024 5.645c.68-.604 1.02-1.514 1.02-2.73v-4.673h-2.222v1.02c-.447-.76-1.279-1.142-2.496-1.142-.629 0-1.174.107-1.636.32-.46.213-.814.507-1.057.882a2.294 2.294 0 0 0 -.365 1.28c0 .76.287 1.358.86 1.794.572.436 1.457.655 2.655.655h1.887c0 .517-.158.915-.472 1.194-.315.278-.786.418-1.415.418-.437 0-.866-.068-1.286-.205a3.389 3.389 0 0 1 -1.073-.556l-.852 1.66c.446.314.981.557 1.605.73a7.207 7.207 0 0 0 1.925.258c1.268 0 2.242-.302 2.921-.905m9.968-7.007a2.427 2.427 0 0 0 -.86-.388 4.368 4.368 0 0 0 -1.072-.13c-.974 0-1.727.249-2.26.747-.533.497-.8 1.227-.8 2.191v3.362h-1.262v1.826h1.263v1.994h2.374v-1.994h2.039v-1.826h-2.04v-3.332c0-.346.09-.611.267-.799.178-.188.429-.282.753-.282.376 0 .695.102.959.305zm3.622-.267c-.65.168-1.168.378-1.553.632l.791 1.704a4.944 4.944 0 0 1 1.324-.57 5.509 5.509 0 0 1 1.521-.22c1.005 0 1.507.247 1.507.744 0 .233-.137.401-.41.503-.275.101-.696.187-1.264.26-.669.1-1.222.217-1.658.348a2.568 2.568 0 0 0 -1.134.701c-.319.334-.479.811-.479 1.43 0 .517.15.976.45 1.376.298.402.734.713 1.307.937.573.222 1.25.334 2.032.334a8.03 8.03 0 0 0 1.727-.19c.572-.127 1.047-.302 1.422-.525l-.79-1.689a4.72 4.72 0 0 1 -2.359.61c-.508 0-.888-.073-1.142-.214-.253-.143-.38-.325-.38-.548 0-.254.137-.432.411-.533.274-.102.71-.197 1.308-.289.67-.112 1.218-.23 1.644-.358a2.472 2.472 0 0 0 1.111-.692c.314-.335.471-.8.471-1.399 0-.508-.152-.959-.456-1.355-.305-.395-.749-.702-1.332-.92-.583-.219-1.276-.328-2.077-.328-.68 0-1.344.084-1.993.251m12.355 3.082-1.14-1.126v-2.085h-2.375v11.29h2.374v-6.39l3.47 3.287h2.83l-3.409-3.47 3.713-4.717h-2.876zm12.098-1.453c.314.187.538.464.669.83v.836h-1.628c-.974 0-1.46-.319-1.46-.959 0-.304.119-.545.357-.723.238-.177.565-.266.981-.266.406 0 .767.094 1.081.282m2.023 5.645c.68-.604 1.02-1.514 1.02-2.73v-4.673h-2.221v1.02c-.447-.76-1.279-1.142-2.496-1.142-.629 0-1.174.107-1.636.32-.461.213-.814.507-1.057.882a2.294 2.294 0 0 0 -.365 1.28c0 .76.286 1.358.859 1.794s1.458.655 2.656.655h1.886c0 .517-.157.915-.471 1.194-.315.278-.786.418-1.415.418-.437 0-.866-.068-1.286-.205a3.389 3.389 0 0 1 -1.073-.556l-.852 1.66c.446.314.981.557 1.605.73a7.207 7.207 0 0 0 1.925.258c1.268 0 2.242-.302 2.921-.905m14.029-4.192-1.14-1.126v-2.085h-2.375v11.29h2.374v-6.39l3.47 3.287h2.83l-3.409-3.47 3.713-4.717h-2.876zm12.097-1.453c.314.187.538.464.67.83v.836h-1.629c-.974 0-1.46-.319-1.46-.959 0-.304.12-.545.357-.723.238-.177.565-.266.981-.266.406 0 .767.094 1.081.282m2.023 5.645c.68-.604 1.02-1.514 1.02-2.73v-4.673h-2.22v1.02c-.448-.76-1.28-1.142-2.497-1.142-.629 0-1.174.107-1.636.32-.46.213-.814.507-1.057.882a2.294 2.294 0 0 0 -.365 1.28c0 .76.286 1.358.86 1.794.572.436 1.457.655 2.655.655h1.886c0 .517-.157.915-.47 1.194-.316.278-.787.418-1.416.418-.437 0-.866-.068-1.286-.205a3.389 3.389 0 0 1 -1.073-.556l-.852 1.66c.446.314.981.557 1.605.73a7.207 7.207 0 0 0 1.925.258c1.268 0 2.242-.302 2.921-.905m12.121-.007c.624-.609.936-1.512.936-2.709v-4.687h-2.374v4.322c0 .649-.142 1.134-.426 1.453s-.695.479-1.233.479c-.598 0-1.075-.185-1.43-.555s-.533-.92-.533-1.651v-4.048h-2.373v8.187h2.267v-.959c.314.345.705.611 1.172.799.466.187.978.281 1.536.281 1.015 0 1.834-.304 2.458-.912m6.299-6.978c-.695.36-1.237.86-1.628 1.5s-.586 1.363-.586 2.175c0 .811.195 1.537.586 2.177a4.052 4.052 0 0 0 1.628 1.498c.695.36 1.479.54 2.35.54.863 0 1.616-.18 2.26-.54a3.203 3.203 0 0 0 1.408-1.544l-1.841-.99c-.426.751-1.04 1.126-1.841 1.126-.62 0-1.131-.203-1.537-.608-.406-.406-.61-.959-.61-1.659 0-.699.204-1.253.61-1.658.406-.407.918-.609 1.537-.609.81 0 1.425.375 1.84 1.126l1.842-1.005a3.27 3.27 0 0 0 -1.407-1.52c-.645-.366-1.398-.549-2.26-.549-.872 0-1.656.181-2.351.54m11.222 5.639c-.365-.305-.588-.72-.67-1.248h4.033c-.082.518-.305.931-.67 1.24-.365.31-.812.464-1.339.464-.538 0-.989-.152-1.354-.457m5.554-2.632h-6.193c.111-.508.375-.908.791-1.202.416-.295.933-.44 1.552-.44.426 0 .804.062 1.134.19.33.126.636.326.92.6l1.263-1.37c-.77-.882-1.897-1.324-3.378-1.324-.923 0-1.74.181-2.45.54-.71.361-1.257.861-1.643 1.5-.385.64-.578 1.364-.578 2.175 0 .802.19 1.525.57 2.17a3.992 3.992 0 0 0 1.568 1.505c.664.36 1.407.54 2.23.54.8 0 1.526-.172 2.175-.517a3.782 3.782 0 0 0 1.53-1.483c.37-.645.554-1.393.554-2.245 0-.03-.015-.243-.045-.639m3.15 7.866h2.374v-11.29h-2.374zm10.3-9.532c.315.187.539.464.67.83v.836h-1.627c-.974 0-1.461-.319-1.461-.959 0-.304.119-.545.357-.723.239-.177.566-.266.982-.266.405 0 .766.094 1.08.282m2.024 5.645c.68-.604 1.02-1.514 1.02-2.73v-4.673h-2.222v1.02c-.446-.76-1.278-1.142-2.496-1.142-.63 0-1.174.107-1.636.32-.461.213-.813.507-1.057.882a2.301 2.301 0 0 0 -.364 1.28c0 .76.286 1.358.859 1.794s1.458.655 2.655.655h1.887c0 .517-.157.915-.472 1.194-.314.278-.786.418-1.415.418-.436 0-.865-.068-1.286-.205a3.383 3.383 0 0 1 -1.072-.556l-.853 1.66c.447.314.982.557 1.606.73a7.207 7.207 0 0 0 1.925.258c1.267 0 2.242-.302 2.92-.905m8.104.601c.48.203 1.037.304 1.666.304v-2.19a8.99 8.99 0 0 1 -.532.03c-.68 0-1.213-.19-1.598-.57-.386-.382-.578-.952-.578-1.713v-3.865h-2.374v8.187h2.268v-1.08c.283.395.666.694 1.148.897m4.602.183h2.374v-8.187h-2.374zm.122 1.521a1.236 1.236 0 0 0 -.411.944c0 .375.137.689.411.943s.628.381 1.065.381c.436 0 .791-.122 1.065-.365.274-.244.411-.548.411-.913 0-.396-.137-.723-.411-.982s-.629-.388-1.065-.388c-.437 0-.791.127-1.065.38m6.208 0a1.234 1.234 0 0 0 -.41.943c0 .375.136.69.41.944.273.254.63.381 1.064.381.437 0 .792-.121 1.066-.365.273-.245.411-.549.411-.914 0-.394-.138-.721-.41-.98-.275-.26-.63-.39-1.067-.39-.435 0-.79.128-1.064.382m-2.739-12.325.638 1.72c.275-.194.61-.29 1.005-.29.304 0 .542.098.715.295.173.2.26.496.26.892v8.187h2.373v-8.171c0-.955-.272-1.708-.815-2.26-.542-.554-1.3-.83-2.274-.83-.832 0-1.466.152-1.902.457m12.904 4.374c.314.187.538.464.67.83v.836h-1.628c-.974 0-1.461-.319-1.461-.959 0-.304.119-.545.357-.723.239-.177.566-.266.982-.266.405 0 .766.094 1.08.282m2.024 5.645c.68-.604 1.02-1.514 1.02-2.73v-4.673h-2.222v1.02c-.446-.76-1.278-1.142-2.496-1.142-.63 0-1.174.107-1.636.32-.461.213-.813.507-1.057.882a2.301 2.301 0 0 0 -.364 1.28c0 .76.286 1.358.859 1.794s1.458.655 2.655.655h1.887c0 .517-.157.915-.472 1.194-.314.278-.786.418-1.415.418-.436 0-.865-.068-1.286-.205a3.383 3.383 0 0 1 -1.072-.556l-.853 1.66c.447.314.982.557 1.606.73a7.207 7.207 0 0 0 1.925.258c1.267 0 2.242-.302 2.92-.905m13.938 5.41h2.115l-5.02-14.334h-2.116zm10.058-2.161h2.465v-8.643h5.342v-2.008h-7.807zm14.835-8.894c.314.187.538.464.67.83v.836h-1.628c-.974 0-1.461-.319-1.461-.959 0-.304.119-.545.357-.723.239-.177.566-.266.982-.266.405 0 .766.094 1.08.282m2.024 5.645c.68-.604 1.02-1.514 1.02-2.73v-4.673h-2.222v1.02c-.446-.76-1.278-1.142-2.496-1.142-.63 0-1.174.107-1.636.32-.461.213-.813.507-1.057.882a2.301 2.301 0 0 0 -.364 1.28c0 .76.286 1.358.859 1.794s1.458.655 2.655.655h1.887c0 .517-.157.915-.472 1.194-.314.278-.786.418-1.415.418-.436 0-.865-.068-1.286-.205a3.383 3.383 0 0 1 -1.072-.556l-.853 1.66c.447.314.982.557 1.606.73a7.207 7.207 0 0 0 1.925.258c1.267 0 2.242-.302 2.92-.905m17.682.784-2.967-8.187h-2.282l-1.842 5.083-1.901-5.083h-2.283l-2.952 8.187h2.237l1.932-5.539 2.009 5.539h2.008l1.948-5.539 1.993 5.539zm13.856-5.744c.39.41.584.96.584 1.65s-.195 1.24-.585 1.652c-.39.41-.89.616-1.499.616s-1.11-.205-1.507-.616c-.395-.411-.594-.961-.594-1.652 0-.69.2-1.24.594-1.65.396-.411.898-.616 1.507-.616.608 0 1.108.205 1.5.616m-3.82-2.024c-.686.36-1.22.86-1.606 1.499s-.578 1.364-.578 2.175c0 .812.192 1.538.578 2.177.385.639.92 1.139 1.606 1.498.684.36 1.458.54 2.32.54s1.633-.18 2.312-.54a4.021 4.021 0 0 0 1.598-1.498c.386-.64.578-1.365.578-2.177 0-.811-.192-1.536-.578-2.175a4.03 4.03 0 0 0 -1.598-1.5c-.679-.36-1.45-.54-2.312-.54s-1.636.18-2.32.54m12.515 7.586h2.1v-1.826h-2.038v-6.178h-2.375v6.178h-1.262v1.826h1.262v.365c0 .933.277 1.674.83 2.222.552.548 1.33.821 2.336.821.354 0 .692-.038 1.01-.114.32-.076.587-.185.8-.327l-.624-1.719a1.625 1.625 0 0 1 -.958.29c-.721 0-1.081-.397-1.081-1.188zm11.914.183h2.374v-8.187h-2.374zm.122 1.521a1.236 1.236 0 0 0 -.411.944c0 .375.137.689.411.943s.629.381 1.065.381.791-.122 1.065-.365c.274-.244.411-.548.411-.913 0-.396-.137-.723-.411-.982s-.629-.388-1.065-.388-.791.127-1.065.38m-4.626-1.704h2.101v-1.826h-2.04v-6.178h-2.374v6.178h-1.262v1.826h1.262v.366c0 .932.277 1.673.83 2.221.552.548 1.331.822 2.335.822.355 0 .693-.039 1.012-.115.32-.076.586-.184.799-.327l-.624-1.719a1.618 1.618 0 0 1 -.958.289c-.721 0-1.081-.396-1.081-1.187zm12.212-7.586a4.05 4.05 0 0 0 -1.63 1.5c-.39.64-.584 1.363-.584 2.175 0 .811.194 1.537.585 2.177a4.054 4.054 0 0 0 1.629 1.498c.694.36 1.479.54 2.35.54.863 0 1.616-.18 2.26-.54a3.205 3.205 0 0 0 1.408-1.544l-1.841-.99c-.426.751-1.04 1.126-1.842 1.126-.618 0-1.131-.203-1.536-.608-.406-.406-.61-.959-.61-1.659 0-.699.204-1.253.61-1.658.405-.407.918-.609 1.536-.609.81 0 1.426.375 1.842 1.126l1.84-1.005a3.272 3.272 0 0 0 -1.407-1.52c-.644-.366-1.397-.549-2.26-.549-.871 0-1.656.181-2.35.54m11.221 5.639c-.365-.305-.588-.72-.67-1.248h4.033c-.081.518-.304.931-.67 1.24-.365.31-.811.464-1.34.464-.537 0-.988-.152-1.353-.457m5.555-2.632h-6.194c.112-.508.375-.908.79-1.202.417-.295.935-.44 1.553-.44.427 0 .805.062 1.134.19.33.126.637.326.92.6l1.263-1.37c-.77-.882-1.896-1.324-3.377-1.324-.923 0-1.741.181-2.45.54-.711.361-1.258.861-1.643 1.5-.386.64-.578 1.364-.578 2.175 0 .802.189 1.525.57 2.17.38.643.902 1.146 1.567 1.505.664.36 1.408.54 2.229.54.802 0 1.527-.172 2.177-.517a3.788 3.788 0 0 0 1.529-1.483c.37-.645.555-1.393.555-2.245 0-.03-.015-.243-.045-.639m-187.411-10.003-24.62-50.269 1.796-.878 25.051 51.147zm64.65 132-24.795-50.625h2.228l24.795 50.625z" fill="#999"/></g></svg>
